<?xml version="1.0" encoding="utf-8"?>
<!-- Generator: Adobe Illustrator 27.5.0, SVG Export Plug-In . SVG Version: 6.00 Build 0)  -->
<svg version="1.1" id="Layer_1" xmlns="http://www.w3.org/2000/svg" xmlns:xlink="http://www.w3.org/1999/xlink" x="0px" y="0px"
	 viewBox="0 0 900 900" style="enable-background:new 0 0 900 900;display:none;" xml:space="preserve">
<g style="display:inline;">
	<path style="fill:#CCDEF2;" d="M763.688,825.427c0-3.372-3.444-6.131-7.653-6.131H111.084c-4.209,0-7.653,2.759-7.653,6.131
		s3.444,6.131,7.653,6.131h644.952C760.245,831.557,763.688,828.799,763.688,825.427z"/>
</g>
<path style="display:inline;fill:#EAA61F;" d="M213.992,326.9c-5.196,6.849-8.186,13.203-7.085,17.241
	c1.417,5.196,8.975,3.779,39.914,2.126c30.939-1.653,44.165-11.258,37.788-27.396C280.795,309.22,213.992,326.9,213.992,326.9z"/>
<g style="display:inline;">
	<rect x="590.202" y="94.168" style="fill:#D88971;" width="70.408" height="101.084"/>
	<rect x="507.507" y="94.168" style="fill:#FCC490;" width="84.008" height="101.084"/>
	<g>
		<rect x="511.174" y="118.711" style="fill:#B23F3F;" width="84.683" height="90.273"/>
		<rect x="495.836" y="118.711" style="fill:#8C3535;" width="84.683" height="90.273"/>
		<rect x="595.314" y="118.711" style="fill:#E5594E;" width="80.298" height="90.273"/>
	</g>
	<g>
		<rect x="477.188" y="101.045" style="fill:#15497C;" width="13.473" height="593.159"/>
	</g>
	<g>
		<rect x="490.335" y="101.045" style="fill:#1A5AA4;" width="13.473" height="593.159"/>
		<polygon style="fill:#13446B;" points="477.188,215.078 490.335,215.078 490.662,215.078 503.808,215.078 503.808,694.204 
			490.662,694.204 490.335,694.204 477.188,694.204 		"/>
	</g>
	<g>
		<rect x="427.332" y="238.201" style="fill:#FFA85A;" width="84.683" height="90.273"/>
		<rect x="511.472" y="238.201" style="fill:#A86951;" width="45.238" height="90.273"/>
	</g>
	<g>
		<rect x="562.003" y="230.896" style="fill:#C2D8EF;" width="52.252" height="99.038"/>
		<polygon style="fill:#8A8AA8;" points="606.806,342.643 554.553,342.643 574.403,272.397 574.403,231.091 582.889,231.091 
			582.889,243.935 587.866,243.605 606.806,259.376 		"/>
		<rect x="606.7" y="230.896" style="fill:#B0B0C6;" width="73.286" height="99.038"/>
	</g>
	<g>
		<g>
			<polygon style="fill:#BF7666;" points="447.299,267.706 412.239,330.811 347.716,330.811 347.716,293.133 407.027,267.706 			"/>
			<rect x="352.831" y="264.2" style="fill:#75D9F1;" width="9.932" height="56.677"/>
			<rect x="361.595" y="264.2" style="fill:#279CD1;" width="48.788" height="56.677"/>
			<rect x="364.809" y="264.2" style="fill:#75D9F1;" width="9.932" height="56.677"/>
			<rect x="416.813" y="267.711" style="fill:#A86256;" width="39.981" height="37.682"/>
			<rect x="373.573" y="264.2" style="fill:#279CD1;" width="48.788" height="56.677"/>
			<rect x="378.248" y="264.2" style="fill:#75D9F1;" width="9.932" height="56.677"/>
			<rect x="387.012" y="264.2" style="fill:#279CD1;" width="48.788" height="56.677"/>
			<polygon style="fill:#D88971;" points="460.441,330.811 387.155,330.811 387.155,293.128 444.418,267.998 495.501,267.998 			"/>
		</g>
		<rect x="347.427" y="293.128" style="fill:#FCC490;" width="39.981" height="37.682"/>
	</g>
	<g>
		<g>
			<polygon style="fill:#A86256;" points="504.707,267.706 469.647,330.811 405.123,330.811 405.123,293.133 464.435,267.706 			"/>
			<rect x="477.58" y="267.711" style="fill:#FCC490;" width="39.981" height="37.682"/>
			<polygon style="fill:#CCCBDB;" points="465.168,293.615 488.78,293.615 481.227,256.697 457.615,256.697 			"/>
			<polygon style="opacity:0.6;fill:#8C8CA5;" points="485.978,293.176 468.181,295.519 460.397,256.751 478.193,256.751 			"/>
			
				<rect x="449.825" y="257.486" transform="matrix(0.9797 -0.2005 0.2005 0.9797 -46.1494 96.9692)" style="fill:#EEEFE6;" width="11.685" height="37.683"/>
			<polygon style="fill:#CCCBDB;" points="482.405,293.615 506.017,293.615 498.464,256.697 474.852,256.697 			"/>
			
				<rect x="467.062" y="257.486" transform="matrix(0.9797 -0.2005 0.2005 0.9797 -45.7994 100.425)" style="fill:#EEEFE6;" width="11.685" height="37.683"/>
			<rect x="441.352" y="283.195" style="fill:#E5BF23;" width="39.981" height="37.682"/>
			<rect x="410.384" y="283.195" style="fill:#FBF65A;" width="39.981" height="37.682"/>
			<polygon style="fill:#D88971;" points="517.849,330.811 444.563,330.811 444.563,293.128 501.826,267.998 517.849,267.998 			"/>
		</g>
		<rect x="404.834" y="293.128" style="fill:#FCC490;" width="39.981" height="37.682"/>
	</g>
	<rect x="604.226" y="351.846" style="fill:#B87A53;" width="70.408" height="101.084"/>
	<rect x="576.616" y="351.846" style="fill:#704136;" width="28.922" height="101.084"/>
	<g>
		<polygon style="fill:#272523;" points="608.561,462.724 535.275,462.724 535.275,411.444 573.258,363.686 608.561,363.686 		"/>
	</g>
	<g>
		<g>
			<g>
				<rect x="347.171" y="352.833" style="fill:#FED500;" width="25.645" height="98.482"/>
				<rect x="372.815" y="352.833" style="fill:#EAA61F;" width="66.576" height="98.482"/>
				<rect x="355.56" y="374.486" style="fill:#FFFFFF;" width="7.669" height="43.895"/>
				<rect x="347.171" y="433.227" style="fill:#5B5652;" width="25.645" height="13.473"/>
				<rect x="372.815" y="433.227" style="fill:#1E2123;" width="59.732" height="13.473"/>
			</g>
			<rect x="378.793" y="352.833" style="fill:#FED500;" width="25.645" height="98.482"/>
			<rect x="404.438" y="352.833" style="fill:#EAA61F;" width="66.576" height="98.482"/>
			<rect x="387.183" y="374.486" style="fill:#FFFFFF;" width="7.669" height="43.895"/>
			<rect x="378.793" y="433.227" style="fill:#5B5652;" width="25.645" height="13.473"/>
		</g>
		<rect x="404.423" y="433.227" style="fill:#1E2123;" width="66.608" height="13.473"/>
	</g>
	<g>
		<polygon style="fill:#505862;" points="501.194,363.682 501.194,462.722 427.914,462.722 427.914,411.44 465.89,363.682 		"/>
		<polygon style="fill:#737B84;" points="501.194,363.682 501.194,411.44 427.914,411.44 465.89,363.682 		"/>
	</g>
	<g>
		<polygon style="fill:#272523;" points="507.769,462.724 434.483,462.724 434.483,411.444 472.466,363.686 507.769,363.686 		"/>
		<rect x="446.026" y="369.376" style="fill:#899122;" width="70.408" height="83.554"/>
		<rect x="463.117" y="369.376" style="fill:#899122;" width="70.408" height="83.554"/>
	</g>
	<g>
		<polygon style="fill:#505862;" points="543.562,363.682 543.562,462.722 470.273,462.722 470.273,411.44 508.258,363.682 		"/>
		<polygon style="fill:#737B84;" points="543.562,363.682 543.562,411.44 470.273,411.44 508.258,363.682 		"/>
		<polygon style="fill:#332E2B;" points="512.491,367.48 484.883,404.721 472.797,408.016 505.041,367.48 		"/>
	</g>
	<g>
		<polygon style="fill:#272523;" points="551.008,462.724 477.722,462.724 477.722,411.444 515.704,363.686 551.008,363.686 		"/>
		<rect x="491.82" y="351.846" style="fill:#B23F3F;" width="70.408" height="101.084"/>
		<rect x="481.96" y="351.846" style="fill:#FF5245;" width="11.392" height="101.084"/>
		<rect x="508.692" y="351.846" style="fill:#B23F3F;" width="70.408" height="101.084"/>
		<rect x="498.613" y="351.846" style="fill:#FF5245;" width="11.392" height="101.084"/>
		<rect x="437.7" y="369.376" style="fill:#C7D821;" width="11.392" height="83.554"/>
		<rect x="454.352" y="369.376" style="fill:#C7D821;" width="11.392" height="83.554"/>
	</g>
	<g>
		<polygon style="fill:#505862;" points="587.673,363.682 587.673,462.722 514.385,462.722 514.385,411.44 552.37,363.682 		"/>
		<polygon style="fill:#737B84;" points="587.673,363.682 587.673,411.44 514.385,411.44 520.125,404.218 552.37,363.682 		"/>
		<polygon style="fill:#332E2B;" points="559.82,363.682 532.211,400.923 520.125,404.218 552.37,363.682 		"/>
	</g>
	<g>
		<polygon style="fill:#332E2B;" points="595.122,462.724 521.836,462.724 521.836,411.444 559.818,363.686 595.122,363.686 		"/>
	</g>
	<g>
		<g>
			<polygon style="fill:#505862;" points="538.299,342.651 465.013,342.651 465.013,291.371 502.996,243.613 538.299,243.613 			"/>
		</g>
		<polygon style="fill:#272523;" points="545.749,342.651 472.463,342.651 472.463,291.371 510.445,243.613 545.749,243.613 		"/>
		<polygon style="fill:#FED500;" points="490.286,331.687 477.537,331.687 472.888,232.649 485.637,232.649 		"/>
		<polygon style="fill:#CE8D1B;" points="554.226,331.687 483.828,331.687 479.179,232.649 549.577,232.649 		"/>
		<rect x="489.54" y="236.155" style="fill:#FED500;" width="12.75" height="99.038"/>
		<rect x="495.832" y="236.155" style="fill:#CE8D1B;" width="70.398" height="99.038"/>
		<rect x="499.181" y="230.896" style="fill:#FED500;" width="12.75" height="99.038"/>
		<rect x="505.472" y="230.896" style="fill:#CE8D1B;" width="70.398" height="99.038"/>
		<g>
			<polygon style="fill:#505862;" points="582.414,342.651 509.128,342.651 509.128,291.371 547.11,243.613 582.414,243.613 			"/>
		</g>
		<g>
			<polygon style="fill:#332E2B;" points="589.864,342.651 516.578,342.651 516.578,291.371 554.56,243.613 589.864,243.613 			"/>
		</g>
	</g>
	<g>
		<polygon style="fill:#332E2B;" points="607.144,462.724 680.431,462.724 680.431,411.444 642.448,363.686 607.144,363.686 		"/>
	</g>
	<g>
		<rect x="353.416" y="526.263" style="fill:#564D47;" width="78.548" height="55.213"/>
		<rect x="424.408" y="526.263" style="fill:#332E2B;" width="55.756" height="55.213"/>
	</g>
	<g>
		<rect x="349.033" y="104.098" style="fill:#332E2B;" width="131.131" height="104.886"/>
		<rect x="348.157" y="171.301" style="fill:#564D47;" width="83.807" height="37.682"/>
	</g>
	<g>
		<rect x="424.408" y="130.108" style="fill:#332E2B;" width="55.756" height="37.682"/>
		<rect x="348.157" y="130.108" style="fill:#564D47;" width="83.807" height="37.682"/>
	</g>
	<g>
		<rect x="424.408" y="88.915" style="fill:#332E2B;" width="55.756" height="37.682"/>
		<rect x="348.157" y="88.915" style="fill:#564D47;" width="83.807" height="37.682"/>
	</g>
	<g>
		<rect x="353.416" y="471.047" style="fill:#F9DEC1;" width="78.548" height="55.213"/>
		<rect x="424.408" y="471.047" style="fill:#C1AA8A;" width="55.756" height="55.213"/>
		<rect x="450.537" y="471.047" style="fill:#B87A53;" width="9.094" height="13.431"/>
		<rect x="450.537" y="526.263" style="opacity:0.2;fill:#C1AA8A;" width="9.094" height="12.263"/>
	</g>
	<g>
		<rect x="350.786" y="601.636" style="fill:#EEEFE6;" width="84.683" height="90.273"/>
		<rect x="434.926" y="601.636" style="opacity:0.8;fill:#93878D;" width="45.238" height="90.273"/>
	</g>
	<g>
		<polygon style="fill:#A86951;" points="608.981,597.945 608.272,597.945 543.201,597.945 543.201,694.507 608.272,694.507 
			608.981,694.507 682.284,694.507 682.284,597.945 		"/>
		<rect x="543.201" y="663.435" style="fill:#A86951;" width="65.78" height="31.072"/>
		<rect x="608.272" y="663.435" style="fill:#D88850;" width="74.013" height="31.072"/>
		<rect x="543.201" y="629.489" style="fill:#A86951;" width="65.78" height="31.072"/>
		<rect x="608.272" y="629.489" style="fill:#D88850;" width="74.013" height="31.072"/>
		<rect x="543.201" y="595.761" style="fill:#A86951;" width="65.78" height="31.072"/>
		<rect x="608.272" y="595.761" style="fill:#D88850;" width="74.013" height="31.072"/>
		<rect x="591.84" y="617.132" style="opacity:0.8;fill:#CEC0B3;" width="12.714" height="6.679"/>
		<rect x="591.84" y="649.826" style="opacity:0.8;fill:#CEC0B3;" width="12.714" height="6.679"/>
		<rect x="591.84" y="684.885" style="opacity:0.8;fill:#CEC0B3;" width="12.714" height="6.679"/>
	</g>
	<g>
		<polygon style="fill:#BA5C2D;" points="511.403,597.945 510.693,597.945 446.499,597.945 446.499,694.507 510.693,694.507 
			511.403,694.507 584.706,694.507 584.706,597.945 		"/>
		<rect x="445.623" y="663.435" style="fill:#FFB95C;" width="65.78" height="31.072"/>
		<rect x="510.693" y="663.435" style="fill:#D88850;" width="74.013" height="31.072"/>
		<rect x="445.623" y="629.489" style="fill:#FFB95C;" width="65.78" height="31.072"/>
		<rect x="510.693" y="629.489" style="fill:#D88850;" width="74.013" height="31.072"/>
		<rect x="445.623" y="595.761" style="fill:#FFB95C;" width="65.78" height="31.072"/>
		<rect x="510.693" y="595.761" style="fill:#D88850;" width="74.013" height="31.072"/>
		<rect x="374.227" y="479.812" style="fill:#FFFFFF;" width="28.269" height="19.716"/>
		<rect x="496.014" y="649.826" style="fill:#FFFFFF;" width="10.961" height="6.679"/>
		<rect x="496.014" y="684.885" style="fill:#FFFFFF;" width="10.961" height="6.679"/>
		<rect x="496.014" y="617.132" style="fill:#FFFFFF;" width="10.961" height="6.679"/>
		<rect x="471.902" y="682.632" style="opacity:0.4;fill:#F9DEC1;" width="14.275" height="14.301"/>
	</g>
	<g>
		<rect x="561.126" y="482.442" style="fill:#D3BCA1;" width="52.254" height="99.031"/>
		<polygon style="opacity:0.8;fill:#7F7077;" points="607.586,515.738 607.586,579.281 564.64,579.281 564.64,482.442 
			589.935,482.442 		"/>
		<rect x="605.823" y="482.438" style="fill:#C1AA8A;" width="73.286" height="99.038"/>
		<g>
			<path style="fill:#505862;" d="M597.506,497.917c0,1.446-1.183,2.629-2.629,2.629h-11.543c-1.446,0-2.629-1.183-2.629-2.629
				v-0.028c0-1.446,1.183-2.629,2.629-2.629h11.543c1.446,0,2.629,1.183,2.629,2.629V497.917z"/>
		</g>
		<rect x="583.334" y="558.949" style="opacity:0.3;fill:#505862;" width="16.802" height="9.089"/>
	</g>
	<g>
		<rect x="466.478" y="482.438" style="fill:#F9DEC1;" width="52.252" height="99.038"/>
		<rect x="511.175" y="482.438" style="fill:#C1AA8A;" width="73.286" height="99.038"/>
	</g>
	<g>
		<rect x="448.948" y="110.823" style="fill:#EEEFE6;" width="34.606" height="99.038"/>
		<rect x="478.55" y="110.823" style="fill:#C1AA8A;" width="48.536" height="99.038"/>
	</g>
	<g>
		<rect x="490.141" y="110.823" style="fill:#EEEFE6;" width="34.606" height="99.038"/>
		<rect x="519.743" y="110.823" style="fill:#C1AA8A;" width="54.672" height="99.038"/>
	</g>
	<g>
		<g>
			<path style="fill:#100F0B;" d="M553.931,811.517c0,8.466-6.844,15.329-15.287,15.329c-8.443,0-15.287-6.863-15.287-15.329
				c0-8.466,6.844-15.329,15.287-15.329C547.087,796.188,553.931,803.051,553.931,811.517z"/>
			<path style="fill:#100F0B;" d="M656.62,811.517c0,8.466-6.844,15.329-15.287,15.329c-8.443,0-15.287-6.863-15.287-15.329
				c0-8.466,6.844-15.329,15.287-15.329C649.776,796.188,656.62,803.051,656.62,811.517z"/>
			<path style="fill:#100F0B;" d="M410.422,811.517c0,8.466-6.844,15.329-15.287,15.329c-8.443,0-15.287-6.863-15.287-15.329
				c0-8.466,6.844-15.329,15.287-15.329C403.578,796.188,410.422,803.051,410.422,811.517z"/>
			<path style="fill:#100F0B;" d="M513.111,811.517c0,8.466-6.844,15.329-15.287,15.329c-8.443,0-15.287-6.863-15.287-15.329
				c0-8.466,6.844-15.329,15.287-15.329C506.267,796.188,513.111,803.051,513.111,811.517z"/>
			<g>
				<path style="fill:#272523;" d="M622.348,759.354c0,1.928-1.578,3.506-3.506,3.506H411.249c-1.928,0-3.506-1.578-3.506-3.506
					v-33.527c0-1.928,1.578-3.506,3.506-3.506h207.594c1.928,0,3.506,1.578,3.506,3.506V759.354z"/>
			</g>
			<g>
				<path style="fill:#564D47;" d="M493.647,764.614c0,1.928-1.578,3.506-3.506,3.506h-58.295c-1.928,0-3.506-1.578-3.506-3.506
					v-33.527c0-1.928,1.578-3.506,3.506-3.506h58.295c1.928,0,3.506,1.578,3.506,3.506V764.614z"/>
			</g>
			<path style="fill:#D85825;" d="M662.46,746.372v64.997H371.609v-64.997c0-7.082,5.793-12.875,12.866-12.875h265.118
				C656.675,733.497,662.46,739.29,662.46,746.372z"/>
			<path style="fill:#FF7415;" d="M525.365,733.497c-7.082,0-12.875,5.793-12.875,12.875v65.874H371.609v-65.874
				c0-0.999,0.114-1.972,0.333-2.91c0.456-1.945,1.35-3.725,2.577-5.224c2.366-2.892,5.96-4.741,9.956-4.741H525.365z"/>
			<g>
				<g>
					<path style="fill:#272523;" d="M537.789,789.175c0,0.964-0.789,1.753-1.753,1.753h-1.686c-0.964,0-1.753-0.789-1.753-1.753
						v-3.493c0-0.964,0.789-1.753,1.753-1.753h1.686c0.964,0,1.753,0.789,1.753,1.753V789.175z"/>
				</g>
				<g>
					<path style="fill:#272523;" d="M551.003,789.175c0,0.964-0.789,1.753-1.753,1.753h-1.686c-0.964,0-1.753-0.789-1.753-1.753
						v-3.493c0-0.964,0.789-1.753,1.753-1.753h1.686c0.964,0,1.753,0.789,1.753,1.753V789.175z"/>
				</g>
				<g>
					<path style="fill:#272523;" d="M564.217,789.175c0,0.964-0.789,1.753-1.753,1.753h-1.686c-0.964,0-1.753-0.789-1.753-1.753
						v-3.493c0-0.964,0.789-1.753,1.753-1.753h1.686c0.964,0,1.753,0.789,1.753,1.753V789.175z"/>
				</g>
				<g>
					<path style="fill:#272523;" d="M577.431,789.175c0,0.964-0.789,1.753-1.753,1.753h-1.687c-0.964,0-1.753-0.789-1.753-1.753
						v-3.493c0-0.964,0.789-1.753,1.753-1.753h1.687c0.964,0,1.753,0.789,1.753,1.753V789.175z"/>
				</g>
				<g>
					<path style="fill:#272523;" d="M590.645,789.175c0,0.964-0.789,1.753-1.753,1.753h-1.686c-0.964,0-1.753-0.789-1.753-1.753
						v-3.493c0-0.964,0.789-1.753,1.753-1.753h1.686c0.964,0,1.753,0.789,1.753,1.753V789.175z"/>
				</g>
				<g>
					<path style="fill:#272523;" d="M603.859,789.175c0,0.964-0.789,1.753-1.753,1.753h-1.687c-0.964,0-1.753-0.789-1.753-1.753
						v-3.493c0-0.964,0.789-1.753,1.753-1.753h1.687c0.964,0,1.753,0.789,1.753,1.753V789.175z"/>
				</g>
				<g>
					<path style="fill:#272523;" d="M617.073,789.175c0,0.964-0.789,1.753-1.753,1.753h-1.687c-0.964,0-1.753-0.789-1.753-1.753
						v-3.493c0-0.964,0.789-1.753,1.753-1.753h1.687c0.964,0,1.753,0.789,1.753,1.753V789.175z"/>
				</g>
				<g>
					<path style="fill:#272523;" d="M630.287,789.175c0,0.964-0.789,1.753-1.753,1.753h-1.687c-0.964,0-1.753-0.789-1.753-1.753
						v-3.493c0-0.964,0.789-1.753,1.753-1.753h1.687c0.964,0,1.753,0.789,1.753,1.753V789.175z"/>
				</g>
				<g>
					<path style="fill:#272523;" d="M643.501,789.175c0,0.964-0.789,1.753-1.753,1.753h-1.687c-0.964,0-1.753-0.789-1.753-1.753
						v-3.493c0-0.964,0.789-1.753,1.753-1.753h1.687c0.964,0,1.753,0.789,1.753,1.753V789.175z"/>
				</g>
			</g>
		</g>
		<path style="opacity:0.6;fill:#FF9852;" d="M473.351,743.462c1.077-1.945,2.539-3.725,4.245-5.224
			c3.29-2.892,7.474-4.741,11.471-4.741h-52.59c-3.997,0-8.181,1.849-11.471,4.741c-1.706,1.499-3.168,3.278-4.245,5.224
			c-0.519,0.938-0.943,1.911-1.262,2.91l-21.036,65.874h52.59l21.036-65.874C472.407,745.373,472.832,744.4,473.351,743.462z"/>
	</g>
	<path style="fill:#3F3A36;" d="M499.019,753.12v59.345H384.353V753.12c0-3.383,2.77-6.161,6.161-6.161h102.343
		C496.241,746.959,499.019,749.737,499.019,753.12z"/>
	<path style="fill:#5ABCFF;" d="M406.087,752.218c-0.001,0-0.002,0-0.003,0h-14.693c-0.965,0-1.779,0.814-1.779,1.779v6.755h10.541
		c0.001,0,0.002,0,0.003,0h11.187c0.965,0,1.779-0.814,1.779-1.779v-6.755H406.087z"/>
	<path style="fill:#5ABCFF;" d="M476.989,752.218c0.001,0,0.002,0,0.003,0h14.693c0.965,0,1.779,0.814,1.779,1.779v6.755h-10.541
		c-0.001,0-0.002,0-0.003,0h-11.186c-0.965,0-1.78-0.814-1.78-1.779v-6.755H476.989z"/>
	<rect x="512.49" y="793.92" style="fill:#AA9F93;" width="149.97" height="17.45"/>
	<rect x="371.609" y="793.92" style="fill:#F2CDAF;" width="140.881" height="18.326"/>
	<rect x="367.384" y="810.134" style="fill:#564D47;" width="297.854" height="11.696"/>
	<rect x="509.179" y="810.134" style="fill:#272523;" width="156.059" height="11.696"/>
	<g>
		<path style="fill:#CEC0B3;" d="M606.414,773.611c0,1.896-1.551,3.447-3.447,3.447h-27.575c-1.896,0-3.447-1.551-3.447-3.447
			v-22.52c0-1.896,1.551-3.447,3.447-3.447h27.575c1.896,0,3.447,1.551,3.447,3.447V773.611z"/>
	</g>
	<g>
		<path style="fill:#565050;" d="M420.574,786.227c0,1.446-1.183,2.629-2.629,2.629h-25.704c-1.446,0-2.629-1.183-2.629-2.629
			v-12.37c0-1.446,1.183-2.629,2.629-2.629h25.704c1.446,0,2.629,1.183,2.629,2.629V786.227z"/>
	</g>
	<g>
		<path style="fill:#272523;" d="M452.785,777.024c0,1.446-1.183,2.629-2.629,2.629h-16.939c-1.446,0-2.629-1.183-2.629-2.629
			v-12.37c0-1.446,1.183-2.629,2.629-2.629h16.939c1.446,0,2.629,1.183,2.629,2.629V777.024z"/>
	</g>
	<g>
		<path style="fill:#272523;" d="M482.51,781.114c0,0.964-0.789,1.753-1.753,1.753h-9.051c-0.964,0-1.753-0.789-1.753-1.753v-7.987
			c0-0.964,0.789-1.753,1.753-1.753h9.051c0.964,0,1.753,0.789,1.753,1.753V781.114z"/>
	</g>
	<path style="fill:#FF7415;" d="M662.46,746.372v8.764c0-7.082-5.785-12.875-12.866-12.875H525.357
		c-7.073,0-12.866,5.793-12.866,12.875l-4.233-8.764c0-7.082,10.027-12.875,17.1-12.875h124.237
		C656.675,733.497,662.46,739.29,662.46,746.372z"/>
	<path style="fill:#D85825;" d="M662.46,746.372v8.764c0-7.082-5.785-12.875-12.866-12.875H573.64l-10.71-8.764h86.664
		C656.675,733.497,662.46,739.29,662.46,746.372z"/>
	<g>
		<path style="fill:#564D47;" d="M452.785,777.024c0,1.446-1.183,2.629-2.629,2.629h-16.939c-1.446,0-1.838-0.88-0.87-1.954
			l5.247-5.831c0.967-1.075,2.942-1.954,4.388-1.954h8.174c1.446,0,2.629,1.183,2.629,2.629V777.024z"/>
	</g>
	<g style="opacity:0.6;">
		<path style="fill:#F4D7C1;" d="M398.345,778.581h-0.131c-0.637,0-0.955-0.219-0.955-0.657c0-0.438,0.336-0.658,1.008-0.658h0.71
			c0.298,0,0.507,0.081,0.626,0.241c0.12,0.161,0.18,0.416,0.18,0.767v4.277c0,0.672-0.24,1.008-0.719,1.008
			s-0.719-0.336-0.719-1.008V778.581z"/>
		<path style="fill:#F4D7C1;" d="M402.184,778.021c0.018-0.164,0.048-0.295,0.092-0.394c0.044-0.099,0.103-0.175,0.18-0.228
			c0.076-0.052,0.168-0.088,0.276-0.105c0.108-0.018,0.235-0.026,0.381-0.026h1.727c0.608,0,0.912,0.221,0.912,0.662
			c0,0.206-0.072,0.366-0.215,0.481c-0.143,0.115-0.358,0.172-0.644,0.172h-1.464l-0.096,0.745c0.216-0.053,0.418-0.079,0.604-0.079
			c0.263,0,0.51,0.051,0.741,0.153c0.231,0.102,0.43,0.245,0.596,0.429c0.167,0.184,0.298,0.402,0.394,0.653
			c0.097,0.251,0.145,0.529,0.145,0.833c0,0.333-0.057,0.644-0.171,0.933c-0.114,0.289-0.275,0.54-0.482,0.754
			c-0.208,0.213-0.456,0.38-0.745,0.5c-0.29,0.12-0.609,0.18-0.96,0.18c-0.28,0-0.54-0.035-0.78-0.105
			c-0.24-0.07-0.45-0.164-0.631-0.281c-0.181-0.117-0.323-0.25-0.425-0.399c-0.103-0.149-0.153-0.302-0.153-0.46
			c0-0.187,0.055-0.339,0.167-0.456c0.111-0.117,0.251-0.175,0.42-0.175c0.106,0,0.208,0.028,0.307,0.083
			c0.1,0.056,0.203,0.117,0.312,0.184c0.108,0.067,0.223,0.129,0.346,0.184c0.123,0.056,0.263,0.083,0.42,0.083
			c0.123,0,0.237-0.025,0.342-0.074c0.105-0.05,0.199-0.117,0.281-0.202c0.082-0.085,0.146-0.184,0.193-0.298
			c0.046-0.114,0.07-0.238,0.07-0.373c0-0.281-0.072-0.497-0.215-0.648c-0.143-0.152-0.334-0.228-0.574-0.228
			c-0.088,0-0.177,0.012-0.268,0.035c-0.09,0.023-0.18,0.048-0.267,0.074c-0.088,0.026-0.174,0.051-0.259,0.074
			c-0.084,0.023-0.168,0.035-0.25,0.035c-0.368,0-0.552-0.205-0.552-0.614c0-0.041,0.004-0.102,0.013-0.184
			c0.009-0.082,0.019-0.181,0.031-0.298L402.184,778.021z"/>
		<path style="fill:#F4D7C1;" d="M410.501,780.071c0.689,0.357,1.034,0.888,1.034,1.595c0,0.281-0.054,0.544-0.162,0.789
			c-0.108,0.245-0.262,0.459-0.46,0.64c-0.199,0.181-0.434,0.324-0.706,0.43c-0.271,0.105-0.571,0.158-0.898,0.158
			c-0.514,0-0.982-0.16-1.402-0.479c-0.251-0.191-0.441-0.398-0.57-0.618c-0.129-0.221-0.193-0.428-0.193-0.62
			c0-0.205,0.057-0.368,0.171-0.491c0.114-0.123,0.264-0.184,0.451-0.184c0.141,0,0.256,0.034,0.346,0.101
			c0.091,0.067,0.186,0.165,0.285,0.294c0.064,0.088,0.127,0.174,0.188,0.258c0.061,0.085,0.127,0.158,0.197,0.219
			c0.07,0.062,0.149,0.111,0.237,0.149c0.088,0.038,0.19,0.057,0.307,0.057c0.21,0,0.389-0.076,0.535-0.228
			c0.146-0.152,0.219-0.342,0.219-0.57c0-0.251-0.076-0.425-0.228-0.521c-0.152-0.096-0.377-0.168-0.675-0.215
			c-0.21-0.035-0.362-0.098-0.456-0.189c-0.094-0.091-0.14-0.238-0.14-0.443c0-0.187,0.046-0.326,0.14-0.416
			c0.093-0.091,0.245-0.159,0.456-0.206c0.439-0.105,0.657-0.318,0.657-0.64c0-0.163-0.047-0.294-0.14-0.39
			c-0.093-0.096-0.219-0.145-0.377-0.145c-0.14,0-0.258,0.034-0.355,0.101c-0.096,0.067-0.194,0.148-0.293,0.241
			c-0.134,0.123-0.251,0.227-0.35,0.311c-0.099,0.085-0.234,0.127-0.403,0.127c-0.152,0-0.288-0.057-0.407-0.171
			c-0.12-0.114-0.18-0.255-0.18-0.425c0-0.175,0.053-0.352,0.158-0.528c0.105-0.177,0.25-0.337,0.434-0.481
			c0.184-0.144,0.399-0.262,0.645-0.353c0.245-0.091,0.505-0.137,0.78-0.137c0.269,0,0.519,0.045,0.75,0.136
			c0.231,0.091,0.428,0.212,0.592,0.364c0.163,0.152,0.292,0.331,0.385,0.539c0.094,0.207,0.14,0.428,0.14,0.662
			c0,0.269-0.057,0.505-0.171,0.71C410.926,779.706,410.747,779.896,410.501,780.071z"/>
	</g>
	<g style="opacity:0.8;">
		<path style="fill:#3F3A36;" d="M583.082,760.473h-0.158c-0.765,0-1.147-0.263-1.147-0.789c0-0.526,0.403-0.789,1.21-0.789h0.852
			c0.357,0,0.608,0.096,0.752,0.289c0.144,0.193,0.215,0.5,0.215,0.92v5.132c0,0.806-0.288,1.21-0.862,1.21
			c-0.575,0-0.862-0.403-0.862-1.21V760.473z"/>
		<path style="fill:#3F3A36;" d="M587.689,759.799c0.021-0.196,0.058-0.354,0.11-0.473c0.053-0.119,0.125-0.211,0.215-0.273
			c0.091-0.063,0.202-0.105,0.331-0.126s0.282-0.031,0.458-0.031h2.072c0.729,0,1.094,0.265,1.094,0.794
			c0,0.247-0.086,0.439-0.257,0.577c-0.172,0.138-0.43,0.206-0.773,0.206h-1.756l-0.116,0.894c0.26-0.063,0.501-0.095,0.726-0.095
			c0.315,0,0.611,0.062,0.889,0.184c0.277,0.123,0.515,0.295,0.715,0.515c0.2,0.221,0.358,0.482,0.474,0.784
			c0.116,0.301,0.173,0.634,0.173,0.999c0,0.4-0.068,0.773-0.205,1.12c-0.137,0.347-0.33,0.649-0.579,0.905
			c-0.249,0.256-0.547,0.456-0.894,0.6c-0.347,0.144-0.731,0.216-1.152,0.216c-0.337,0-0.648-0.042-0.936-0.126
			c-0.288-0.084-0.54-0.196-0.757-0.337c-0.217-0.14-0.387-0.3-0.51-0.479c-0.123-0.179-0.184-0.363-0.184-0.552
			c0-0.224,0.066-0.406,0.2-0.547c0.133-0.14,0.301-0.21,0.505-0.21c0.126,0,0.248,0.033,0.368,0.1
			c0.119,0.067,0.243,0.14,0.373,0.221c0.13,0.081,0.268,0.154,0.415,0.221c0.148,0.067,0.315,0.1,0.505,0.1
			c0.147,0,0.284-0.03,0.41-0.09c0.126-0.059,0.238-0.14,0.336-0.242c0.098-0.102,0.175-0.221,0.231-0.358s0.084-0.286,0.084-0.447
			c0-0.337-0.086-0.596-0.257-0.778c-0.172-0.182-0.402-0.273-0.689-0.273c-0.105,0-0.212,0.014-0.321,0.042
			c-0.109,0.028-0.216,0.058-0.321,0.089c-0.105,0.032-0.208,0.062-0.31,0.09c-0.102,0.028-0.202,0.042-0.3,0.042
			c-0.442,0-0.663-0.245-0.663-0.736c0-0.049,0.005-0.123,0.016-0.221c0.011-0.098,0.022-0.217,0.037-0.358L587.689,759.799z"/>
		<path style="fill:#3F3A36;" d="M597.669,762.261c0.827,0.428,1.241,1.066,1.241,1.914c0,0.337-0.065,0.652-0.194,0.947
			c-0.13,0.294-0.314,0.55-0.552,0.768c-0.238,0.218-0.52,0.389-0.847,0.515c-0.326,0.126-0.685,0.19-1.078,0.19
			c-0.617,0-1.178-0.192-1.683-0.575c-0.302-0.23-0.529-0.477-0.684-0.742s-0.232-0.513-0.232-0.745
			c0-0.245,0.068-0.442,0.205-0.589s0.317-0.221,0.542-0.221c0.169,0,0.307,0.041,0.416,0.121c0.109,0.081,0.223,0.198,0.342,0.352
			c0.077,0.105,0.153,0.208,0.226,0.31c0.074,0.102,0.153,0.189,0.237,0.263c0.084,0.074,0.179,0.133,0.284,0.179
			c0.105,0.046,0.228,0.068,0.368,0.068c0.252,0,0.466-0.091,0.642-0.273c0.175-0.182,0.263-0.41,0.263-0.684
			c0-0.302-0.091-0.51-0.273-0.626c-0.183-0.116-0.452-0.201-0.81-0.258c-0.253-0.042-0.435-0.117-0.547-0.226
			c-0.112-0.109-0.168-0.286-0.168-0.531c0-0.224,0.056-0.391,0.168-0.5c0.112-0.109,0.294-0.191,0.547-0.247
			c0.526-0.126,0.789-0.382,0.789-0.768c0-0.196-0.056-0.352-0.168-0.468c-0.112-0.116-0.263-0.174-0.452-0.174
			c-0.168,0-0.31,0.04-0.426,0.121c-0.116,0.081-0.233,0.177-0.353,0.289c-0.162,0.147-0.302,0.272-0.421,0.373
			c-0.119,0.102-0.28,0.153-0.483,0.153c-0.183,0-0.346-0.068-0.489-0.205c-0.144-0.137-0.216-0.307-0.216-0.51
			c0-0.211,0.063-0.422,0.189-0.634c0.126-0.212,0.3-0.404,0.521-0.577c0.221-0.173,0.479-0.314,0.773-0.424
			c0.295-0.109,0.606-0.164,0.936-0.164c0.323,0,0.622,0.054,0.899,0.163c0.277,0.109,0.514,0.254,0.71,0.436
			c0.196,0.183,0.351,0.398,0.463,0.647c0.112,0.249,0.168,0.514,0.168,0.794c0,0.323-0.068,0.607-0.205,0.852
			C598.179,761.823,597.964,762.05,597.669,762.261z"/>
	</g>
	<path style="fill:#BF2E36;" d="M479.864,777.12c0,1.522-1.233,2.755-2.755,2.755c-1.522,0-2.755-1.233-2.755-2.755
		c0-1.522,1.233-2.755,2.755-2.755C478.63,774.365,479.864,775.599,479.864,777.12z"/>
	<g>
		<polygon style="fill:#525B6D;" points="695.086,822.083 682.075,822.083 673.31,713.756 687.197,713.756 		"/>
		<polygon style="fill:#6A7389;" points="700.74,822.083 691.235,822.083 686.853,713.756 700.74,713.756 		"/>
		<rect x="330.214" y="713.756" style="fill:#9BA3BA;" width="13.887" height="108.327"/>
		<polygon style="fill:#525B6D;" points="348.879,822.083 338.498,822.083 343.757,713.756 357.645,713.756 		"/>
		<polygon style="fill:#AEB7CE;" points="540.829,822.083 531.324,822.083 525.189,713.756 540.829,713.756 		"/>
		<polygon style="fill:#6A7389;" points="549.99,822.083 540.484,822.083 540.484,713.756 556.125,713.756 		"/>
		<g>
			<g>
				<polygon style="fill:#AEB7CE;" points="543.896,722.521 330.214,722.521 330.214,705.542 620.44,705.542 				"/>
			</g>
			<rect x="540.484" y="705.542" style="fill:#6A7389;" width="160.256" height="16.979"/>
		</g>
	</g>
	<g>
		<g>
			<polygon style="fill:#4189E0;" points="700.74,708.497 324.078,708.497 324.078,691.518 706.876,691.518 			"/>
		</g>
		<rect x="540.484" y="691.518" style="fill:#1A5AA4;" width="166.391" height="16.979"/>
	</g>
	<g>
		<g>
			<polygon style="fill:#4189E0;" points="547.11,587.548 327.585,587.548 327.585,572.321 553.245,572.321 			"/>
		</g>
		<rect x="540.484" y="572.321" style="fill:#1A5AA4;" width="163.762" height="15.226"/>
	</g>
	<g>
		<rect x="527.15" y="101.041" style="fill:#4189E0;" width="13.471" height="593.167"/>
	</g>
	<g>
		<rect x="540.293" y="101.045" style="fill:#1A5AA4;" width="13.473" height="593.159"/>
	</g>
	<g>
		<rect x="693.402" y="101.045" style="fill:#1A5AA4;" width="13.473" height="593.159"/>
	</g>
	<g>
		<rect x="324.078" y="101.041" style="fill:#4189E0;" width="13.471" height="593.167"/>
	</g>
	<g>
		<g>
			<polygon style="fill:#4189E0;" points="544.481,466.598 327.585,466.598 326.708,450.496 544.481,450.496 			"/>
		</g>
		<rect x="540.484" y="450.496" style="fill:#1A5AA4;" width="163.762" height="16.103"/>
	</g>
	<g>
		<g>
			<rect x="326.708" y="329.546" style="fill:#4189E0;" width="215.143" height="15.226"/>
		</g>
		<rect x="540.484" y="329.546" style="fill:#1A5AA4;" width="163.762" height="15.226"/>
	</g>
	<g>
		<g>
			<rect x="326.708" y="208.597" style="fill:#4189E0;" width="215.143" height="15.226"/>
		</g>
		<rect x="540.484" y="208.597" style="fill:#1A5AA4;" width="163.762" height="15.226"/>
	</g>
	<rect x="353.532" y="305.482" style="fill:#FFFFFF;" width="26.018" height="12.975"/>
	<rect x="410.94" y="305.482" style="fill:#FFFFFF;" width="26.018" height="12.975"/>
	<rect x="374.766" y="538.967" style="fill:#FFFFFF;" width="28.995" height="5.916"/>
	<rect x="374.766" y="549.52" style="fill:#FFFFFF;" width="10.577" height="5.916"/>
	<rect x="365.028" y="549.52" style="fill:#FED500;" width="6.292" height="5.916"/>
	<rect x="365.028" y="538.967" style="fill:#FED500;" width="6.292" height="5.916"/>
	<rect x="359.651" y="117.717" style="opacity:0.5;fill:#FCC490;" width="29.698" height="3.232"/>
	<rect x="454.308" y="194.552" style="opacity:0.7;fill:#767687;" width="19.473" height="3.232"/>
	<rect x="458.691" y="201.272" style="opacity:0.7;fill:#767687;" width="10.708" height="3.232"/>
	<rect x="494.917" y="194.552" style="opacity:0.7;fill:#767687;" width="19.473" height="3.232"/>
	<rect x="499.3" y="201.272" style="opacity:0.7;fill:#767687;" width="10.708" height="3.232"/>
	<rect x="415.059" y="113.334" style="opacity:0.5;fill:#F9DEC1;" width="11.978" height="7.615"/>
	<rect x="415.059" y="154.235" style="opacity:0.5;fill:#F9DEC1;" width="11.978" height="7.615"/>
	<rect x="415.059" y="195.428" style="opacity:0.5;fill:#F9DEC1;" width="11.978" height="7.615"/>
	<rect x="649.51" y="191.923" style="opacity:0.5;fill:#F9DEC1;" width="17.237" height="11.12"/>
	<rect x="359.651" y="158.618" style="opacity:0.5;fill:#FCC490;" width="29.698" height="3.232"/>
	<rect x="359.651" y="199.811" style="opacity:0.5;fill:#FCC490;" width="29.698" height="3.232"/>
	<rect x="484.114" y="482.438" style="opacity:0.8;fill:#F9DEC1;" width="9.093" height="9.051"/>
	<rect x="488.385" y="558.949" style="opacity:0.4;fill:#505862;" width="16.801" height="9.089"/>
	<g>
		<path style="fill:#505862;" d="M496.13,497.917c0,1.446-1.183,2.629-2.629,2.629h-11.543c-1.446,0-2.629-1.183-2.629-2.629v-0.028
			c0-1.446,1.183-2.629,2.629-2.629H493.5c1.446,0,2.629,1.183,2.629,2.629V497.917z"/>
	</g>
	
		<line style="opacity:0.5;fill:none;stroke:#998265;stroke-width:2.7498;stroke-miterlimit:10;" x1="391.982" y1="691.909" x2="391.982" y2="601.636"/>
	<rect x="382.758" y="601.636" style="fill:#BC7762;" width="17.858" height="15.718"/>
	<rect x="410.804" y="678.326" style="opacity:0.4;fill:#505862;" width="17.859" height="9.052"/>
	<rect x="471.902" y="595.644" style="opacity:0.4;fill:#F9DEC1;" width="14.275" height="78.294"/>
	<polygon style="fill:#D38A79;" points="391.803,617.354 385.436,617.354 391.017,601.636 397.384,601.636 	"/>
	<polygon style="opacity:0.4;fill:#F9DEC1;" points="486.178,637.258 471.902,630.437 471.902,614.208 486.178,621.03 	"/>
</g>
<g style="display:inline;opacity:0.6;">
	<path style="fill:#8A8AA8;" d="M354.977,722.521c-0.151-5.74-0.57-30.975-0.57-30.975l15.863,0.01c0,0-1.875-63.748-2.651-89.919
		h-16.832v89.881h-13.235v-103.97h21.169l-0.536-21.835c15.01-1.548,34.658-1.219,34.658-1.219c0.643-3.63,2.534-9.635,5.749-16.877
		c0.371-0.839,0.76-1.695,1.167-2.566c5.175,1.046,8.266,0.129,11.049-4.509c0.946-1.577,1.97-2.836,1.93-5.397
		c-0.002-0.139-0.022-0.252-0.05-0.353c-0.022-0.332-0.108-0.664-0.278-0.976c-0.595-1.091-1.921-1.514-3.036-1.015l5.435-6.536
		h-61.393v46.058h-15.864l0-105.723h29.711c-0.403-1.547-0.833-3.163-1.297-4.864c-2.855-10.467-8.987-19.747-18.794-22.968v7.934
		v3.796h-9.619v-13.013h-0.381c-0.002,0-0.004,0-0.006,0c0,0-3.465-0.338-5.717-0.017c-0.039,0.005-0.081,0.012-0.121,0.017h-0.122
		v-10.069c0.129-1.416,1.422-2.216,3.619-2.997c0.958-0.14,1.866-0.326,2.729-0.555v-79.09h11.795
		c-2.931-4.813-7.576-9.378-14.376-11.862c-0.222-0.1-0.455-0.178-0.688-0.256c-2.98-1.017-6.377-1.634-10.204-1.699l0,360.562
		v16.98h6.136v5.259v8.765v73.474c0.105,0,0.203,0,0.313,0c-0.123,0.477-0.227,0.869-0.313,1.174v24.914h8.284h5.604h4.778
		l8.056-99.562H354.977z"/>
	<path style="fill:#8A8AA8;" d="M382.469,811.015c-3.983,0.122-8.288-0.529-8.288-0.529s-1.086-1.073-2.572-2.605v2.252h-4.226
		v11.696h16.466c1.008,1.108,2.178,2.062,3.467,2.838c0.555-0.756,0.925-1.821,1.158-3.003l0.016-0.015
		c0.103-0.094,0.209-0.219,0.279-0.315c0.036-0.064,0.071-0.095,0.107-0.158c0.069-0.062,0.105-0.126,0.176-0.221
		c0.036-0.064,0.072-0.128,0.109-0.192c0.036-0.064,0.072-0.128,0.109-0.192c0.106-0.159,0.18-0.319,0.254-0.479
		c0.002-0.033,0.036-0.064,0.04-0.13c0.038-0.097,0.076-0.193,0.147-0.288c0.002-0.033,0.038-0.096,0.041-0.162
		c0.038-0.096,0.076-0.193,0.114-0.29c0.002-0.033,0.038-0.096,0.04-0.129c0.081-0.292,0.162-0.583,0.245-0.908
		c0.174-0.813,0.223-1.764,0.233-1.961c0.002-0.032,0.002-0.032,0.002-0.032c-0.027-0.133-0.02-0.264-0.013-0.395
		C390.288,812.374,386.451,810.926,382.469,811.015z"/>
	<path style="fill:#8A8AA8;" d="M353.416,526.26h61.397l11.332-13.627c0.367-0.441,0.428-0.833,0.244-1.1l-0.854-2.609
		c-0.055-0.35-0.405-0.581-1.018-0.581h-0.898c0.703-3.048-1.472-5.466-4.775-5.466h-44.438c0.098,0,0.189,0.01,0.284,0.014
		c-0.336,0.012-0.68,0.057-1.025,0.136l-0.796-0.032c0.251,0,0.489,0.018,0.72,0.046c-0.992,0.241-1.994,0.762-2.883,1.577
		c-0.237,0.217-0.433,0.441-0.612,0.667l-0.286-2.472l4.898-0.937l-2.432-13.017c-0.827-4.426-1.961-10.073-3.881-17.81h-14.979
		V526.26z"/>
</g>
<g style="display:inline;">
	<g>
		<path style="fill:#403023;" d="M256.144,795.318c-0.714,2.252,0.531,3.393,0.629,3.862c1.85,8.938,26.228,7.191,27.251,6.323
			c1.023-0.868,2.892-24.951,2.553-26.115c-0.339-1.164-16.349-2.354-18.648-2.58c-2.298-0.227-8.139-3.614-7.065-2.807
			C261.311,774.337,256.859,793.065,256.144,795.318z"/>
		<g>
			<path style="fill:#4F3A2A;" d="M255.755,799.018c0,0-0.941,4.99,8.018,4.735c8.551-0.243,13.228-10.238,13.228-10.238
				l13.838-0.822c0,0,0.964,6.286,2.059,7.792c2.989,4.111,10.723,12.076,10.723,12.076l15.923,0.284c0,0,1.248,12.766-3.639,12.905
				c-4.887,0.139-14.551,0.335-18.623,0.451c-4.072,0.116-25.562-4.823-25.562-4.823s-18.313,0.747-18.314,0.513
				C253.374,804.604,255.755,799.018,255.755,799.018z"/>
		</g>
		<polygon style="fill:#4F3A2A;" points="253.093,825.287 280.862,825.318 280.996,821.112 268.668,818.394 252.76,818.545 		"/>
		<path style="fill:#683E3A;" d="M321.331,815.383c0,0,0,0-0.002,0.035c-0.011,0.213-0.064,1.241-0.252,2.119
			c-0.089,0.351-0.177,0.666-0.264,0.981c-0.002,0.035-0.041,0.104-0.043,0.14c-0.041,0.105-0.082,0.209-0.123,0.314
			c-0.004,0.071-0.043,0.139-0.045,0.175c-0.076,0.103-0.117,0.207-0.158,0.312c-0.004,0.071-0.041,0.104-0.043,0.14
			c-0.08,0.174-0.16,0.346-0.275,0.518c-0.04,0.069-0.078,0.138-0.117,0.207c-0.039,0.069-0.078,0.138-0.117,0.207
			c-0.077,0.103-0.116,0.172-0.19,0.239c-0.039,0.068-0.077,0.102-0.116,0.171c-0.077,0.103-0.19,0.239-0.302,0.34l-0.111,0.101
			c-0.076,0.103-0.151,0.17-0.226,0.237c-0.037,0.033-0.11,0.065-0.147,0.098c-0.075,0.067-0.185,0.133-0.295,0.198
			c-0.035-0.002-0.037,0.034-0.073,0.032c-0.111,0.101-0.257,0.164-0.4,0.193c-0.037,0.034-0.073,0.032-0.11,0.065
			c-0.108,0.03-0.216,0.06-0.325,0.09c-0.035-0.002-0.073,0.031-0.144,0.027c-0.144,0.029-0.287,0.056-0.429,0.049
			c-2.171,0.065-5.266,0.153-8.362,0.241c-3.06,0.09-6.191,0.175-8.433,0.237c-0.533,0.008-1.031,0.018-1.423,0.033
			c-0.144,0.028-0.286,0.021-0.427,0.013l-0.497-0.026c-0.105-0.005-0.212-0.011-0.317-0.052l-0.673-0.035
			c-0.069-0.039-0.176-0.045-0.247-0.048c-0.177-0.009-0.317-0.052-0.494-0.061l-0.248-0.013c-0.176-0.045-0.353-0.054-0.564-0.1
			l-0.177-0.009c-0.21-0.047-0.421-0.093-0.669-0.106c-0.035-0.002-0.071-0.004-0.14-0.043c-0.247-0.013-0.494-0.061-0.776-0.111
			c-4.053-0.637-9.469-1.701-13.863-2.604c-4.394-0.903-7.802-1.648-7.802-1.648s-19.044,0.68-19.068,0.466
			c-0.017-2.417,0.061-4.616,0.164-6.6l0.04-0.78c0.707-11.545,2.899-15.447,2.899-15.447s0.866,6.583,10.632,5.314
			c6.832-0.889,9.273-7.512,9.942-10.142c0.212-0.665,0.27-1.088,0.27-1.088l3.311-0.112l7.97-0.225l2.954-0.095
			c0,0,0.131,0.895,0.353,2.079l-0.002,0.035c0.027,0.179,0.091,0.325,0.116,0.503c-0.002,0.035-0.004,0.071,0.029,0.144
			c0.025,0.179,0.052,0.358,0.113,0.538c-0.002,0.036-0.004,0.071,0.03,0.108c0.026,0.179,0.053,0.358,0.114,0.539
			c-0.002,0.036-0.004,0.071-0.004,0.071c0.06,0.216,0.122,0.397,0.146,0.611c0.034,0.037,0.032,0.073,0.03,0.108
			c0.06,0.216,0.122,0.398,0.147,0.576c0.036,0.002,0.034,0.037,0.034,0.037c0.081,1.852,1.856,3.934,1.856,3.934
			c3.403,4.262,9.825,10.601,9.825,10.601s4.653,0.703,8.959,0.571c4.304-0.095,8.452,1.47,8.543,5.17
			C321.309,815.097,321.302,815.239,321.331,815.383z"/>
		<path style="fill:#403023;" d="M292.199,795.463c0,0-9.221,1.945-17.141,4.372c-7.921,2.427-11.498,13.797-11.498,13.797
			l-10.512-2.51c0.707-11.545,2.899-15.447,2.899-15.447s0.786,4.981,10.551,3.711c6.832-0.889,8.593-7.334,9.262-9.964
			l15.394-0.383L292.199,795.463z"/>
	</g>
	<g>
		<path style="fill:#16569B;" d="M287.365,793.55h-11.903c-10.404,0-22.546,0-22.546,0s-8.677-171.493-12.08-231.668
			c-0.245-4.241-3.986-8.186-2.749-7.123l2.32-15.984l42.189,3.26c0,0,1.431,13.481,2.044,33.726
			C286.674,644.051,288.377,793.55,287.365,793.55z"/>
	</g>
	<g>
		<g>
			<path style="fill:#403023;" d="M204.022,795.318c-0.714,2.252,0.532,3.393,0.629,3.862c1.85,8.938,26.228,7.191,27.251,6.323
				c1.023-0.868,2.892-24.951,2.553-26.115c-0.339-1.164-16.35-2.354-18.648-2.58c-2.298-0.227-8.139-3.614-7.066-2.807
				C209.189,774.337,204.736,793.065,204.022,795.318z"/>
			<g>
				<path style="fill:#4F3A2A;" d="M203.632,799.018c0,0-0.941,4.99,8.018,4.735c8.551-0.243,13.228-10.238,13.228-10.238
					l13.838-0.822c0,0,0.964,6.286,2.059,7.792c2.989,4.111,10.723,12.076,10.723,12.076l15.923,0.284
					c0,0,1.248,12.766-3.639,12.905c-4.887,0.139-14.551,0.335-18.623,0.451c-4.072,0.116-25.562-4.823-25.562-4.823
					s-18.313,0.747-18.314,0.513C201.251,804.604,203.632,799.018,203.632,799.018z"/>
			</g>
			<polygon style="fill:#4F3A2A;" points="200.971,825.287 228.74,825.318 228.873,821.112 216.546,818.394 200.637,818.545 			"/>
			<path style="fill:#7C4A45;" d="M269.208,815.383c0,0,0,0-0.002,0.035c-0.011,0.213-0.064,1.241-0.252,2.119
				c-0.089,0.351-0.177,0.666-0.264,0.981c-0.002,0.035-0.041,0.104-0.043,0.14c-0.041,0.105-0.082,0.209-0.123,0.314
				c-0.004,0.071-0.043,0.139-0.045,0.175c-0.076,0.103-0.117,0.207-0.158,0.312c-0.004,0.071-0.041,0.104-0.043,0.14
				c-0.08,0.174-0.16,0.346-0.275,0.518c-0.04,0.069-0.078,0.138-0.117,0.207c-0.039,0.069-0.078,0.138-0.117,0.207
				c-0.077,0.103-0.116,0.172-0.19,0.239c-0.039,0.068-0.076,0.102-0.115,0.171c-0.077,0.103-0.19,0.239-0.302,0.34l-0.111,0.101
				c-0.076,0.103-0.151,0.17-0.226,0.237c-0.037,0.033-0.11,0.065-0.147,0.098c-0.075,0.067-0.185,0.133-0.295,0.198
				c-0.035-0.002-0.037,0.034-0.073,0.032c-0.111,0.101-0.257,0.164-0.4,0.193c-0.037,0.034-0.073,0.032-0.11,0.065
				c-0.108,0.03-0.217,0.06-0.325,0.09c-0.035-0.002-0.073,0.031-0.144,0.027c-0.144,0.029-0.287,0.056-0.428,0.049
				c-2.171,0.065-5.266,0.153-8.362,0.241c-3.06,0.09-6.191,0.175-8.433,0.237c-0.533,0.008-1.031,0.018-1.423,0.033
				c-0.144,0.028-0.286,0.021-0.428,0.013l-0.497-0.026c-0.105-0.005-0.212-0.011-0.316-0.052l-0.673-0.035
				c-0.069-0.039-0.175-0.045-0.246-0.048c-0.177-0.009-0.317-0.052-0.494-0.061l-0.248-0.013c-0.175-0.045-0.353-0.054-0.564-0.1
				l-0.177-0.009c-0.21-0.047-0.421-0.093-0.669-0.106c-0.035-0.002-0.071-0.004-0.14-0.043c-0.247-0.013-0.494-0.061-0.776-0.111
				c-4.052-0.637-9.469-1.701-13.863-2.604c-4.394-0.903-7.802-1.648-7.802-1.648s-19.044,0.68-19.068,0.466
				c-0.017-2.417,0.061-4.616,0.164-6.6l0.04-0.78c0.707-11.545,2.899-15.447,2.899-15.447s0.866,6.583,10.632,5.314
				c6.832-0.889,9.273-7.512,9.942-10.142c0.212-0.665,0.27-1.088,0.27-1.088l3.311-0.112l7.97-0.225l2.954-0.095
				c0,0,0.131,0.895,0.353,2.079l-0.002,0.035c0.027,0.179,0.091,0.325,0.116,0.503c-0.002,0.035-0.004,0.071,0.029,0.144
				c0.025,0.179,0.052,0.358,0.113,0.538c-0.002,0.036-0.004,0.071,0.03,0.108c0.026,0.179,0.052,0.358,0.114,0.539
				c-0.002,0.036-0.004,0.071-0.004,0.071c0.06,0.216,0.122,0.397,0.146,0.611c0.034,0.037,0.032,0.073,0.03,0.108
				c0.06,0.216,0.122,0.398,0.147,0.576c0.036,0.002,0.035,0.037,0.035,0.037c0.081,1.852,1.856,3.934,1.856,3.934
				c3.403,4.262,9.825,10.601,9.825,10.601s4.653,0.703,8.959,0.571c4.304-0.095,8.451,1.47,8.543,5.17
				C269.187,815.097,269.179,815.239,269.208,815.383z"/>
			<path style="fill:#403023;" d="M240.077,795.463c0,0-12.925,2.967-20.463,5.65c-7.537,2.683-18.688,10.01-18.688,10.01
				c0.707-11.545,2.899-15.447,2.899-15.447s0.786,4.981,10.551,3.711c6.832-0.889,8.593-7.334,9.262-9.964l15.394-0.383
				L240.077,795.463z"/>
		</g>
		<g>
			<g>
				<g>
					<path style="fill:#177FBF;" d="M241.125,793.554c1.318,0,7.816-250.943,7.816-250.943l-41.577-3.837l-3.226,15.985
						c-1.175-1.067-3.787,7.119-3.787,7.119l1.022,231.675C201.374,793.554,236.264,793.554,241.125,793.554z"/>
				</g>
				<g>
					
						<path style="fill:none;stroke:#F28F7C;stroke-width:17.9125;stroke-linecap:round;stroke-linejoin:round;stroke-miterlimit:10;" d="
						M286.285,443.871l8.477,73.305c0.341,2.949,2.521,3.85,4.845,2.003l19.781-15.726"/>
				</g>
				<g>
					<path style="fill:#FFE536;" d="M304.381,475.624l-19.055,3.646l-8.417,1.615l-2.636-14.076
						c-2.541-13.641-6.008-28.672-8.21-37.391l-3.495-13.887c0,0-2.381-2.362-3.117-4.714c-0.727-2.362,0.179-4.714,6.764-4.714
						c0.113,0,0.236,0,0.35,0.01c5.706,0.057,10.543,1.748,14.577,4.553c0.019,0.01,0.028,0.019,0.047,0.038
						c0.331,0.217,0.652,0.463,0.973,0.699c0.019,0.009,0.047,0.028,0.066,0.047c6.263,4.846,10.439,12.47,12.706,20.783
						c3.769,13.84,5.602,22.796,6.821,29.323L304.381,475.624z"/>
					<polygon style="opacity:0.6;fill:#C67560;" points="292.403,477.948 283.111,432.681 265.149,482.815 					"/>
				</g>
				<path style="fill:#177FBF;" d="M286.371,538.405l-80.882,37.535l-2.932,34.482c0.411,9.518,7.6,3.278,17.022,1.866
					l49.769-15.283c9.421-1.412,18.176-2.765,18.16-12.292L286.371,538.405z"/>
				<path style="fill:#FFE536;" d="M282.605,556.905c0,0,0.189-0.33,0.397-0.774C283.068,556.584,282.605,556.905,282.605,556.905z"
					/>
				<path style="fill:#FFE536;" d="M286.337,431.213c0,0-0.463,22.361-1.011,48.057c-0.699,32.413-1.512,70.135-1.682,74.971
					c-0.019,0.51-0.359,1.304-0.642,1.889c-0.142-1.19-3.741-3.278-27.717-3.098c-39.092,0.312-54.717,29.654-54.717,29.654V430.505
					c0-13.547,12.376-24.59,25.082-24.486h39.214c0.576,0.009,1.143,0.038,1.701,0.095c3.335,0.293,6.367,1.407,9.003,3.136
					C282.228,413.614,286.337,421.946,286.337,431.213z"/>
				<polygon style="opacity:0.6;fill:#C67560;" points="223.39,439.663 219.778,438.776 218.811,438.776 197.696,481.358 
					203.731,493.33 209.543,506.857 236.774,496.434 238.104,460.065 				"/>
				<path style="fill:#177FBF;" d="M286.044,557.841c0,0-2.777,1.512-7.321,3.883c-20.528,10.685-77.172,38.742-78.155,23.438
					c-0.076-1.03-0.113-2.201-0.179-3.552c-0.038-0.643-0.038-1.275-0.038-1.88c-0.85-27.075,0.567-102.33,0.567-102.33l7.945,3.477
					l2.976,3.835l-10.203,1.625c0,0,0.019,7.699,6.689,7.699c1.143,0,16.372-1.483,17.382-1.483c4.96,0,6.235-18.053,6.547-32.894
					c0.142-7.057,0.066-3.948,0.066-7.265h48.255c0,49.285,0.491,39.837,5.092,39.837c0,0,0.038,1.153,0.095,3.326
					C285.969,503.823,286.431,526.921,286.044,557.841z"/>
				<path style="fill:#16569B;" d="M286.97,564.255c0,0-41.198-11.979-53.612-18.185c-17.949-8.975-17.949-40.15-19.603-49.833
					c0,0-0.982-5.772-1.918-11.526l1.266,1.625c0,0,0.019,7.699,6.689,7.699c1.143,0,4.903-1.483,5.914-1.483
					c4.96,0,6.235-18.053,6.547-32.894l7.246,51.694l46.262-7.794C285.969,511.825,286.025,530.955,286.97,564.255z"/>
				<g>
					<path style="fill:#8E3925;" d="M211.025,345.947c1.383,19.246,6.139,24.445,13.66,24.445c6.17,0,11.282-8.517,11.061-10.508
						c-0.221-1.991-2.433-13.716-4.203-14.379C229.774,344.841,211.025,345.947,211.025,345.947z"/>
					<path style="fill:#8E3925;" d="M228.635,366.294c-1.223-2.455-1.975,5.345-1.992,4.412
						c-0.313-16.384-14.345-4.186-15.451-22.326c-0.943-15.467-1.076-15.602-1.493-23.117c-0.83-14.932,7.845-30.774,39.759-30.53
						c17.767,0.136,22.324,7.036,26.331,16.084c7.462,16.854,1.438,38.503,1.438,38.503L228.635,366.294z"/>
					<path style="fill:#FFB287;" d="M257.358,407.163c0,0,0.243,6.303-10.027,6.303c-10.271,0-16.666-6.303-16.666-6.303v-31.279
						l26.693-1.479L257.358,407.163z"/>
					<path style="fill:#E5785C;" d="M257.358,400.47c-6.994,0.855-26.505-1.651-26.505-6.245c0-4.595-0.188-24.982-0.188-24.982
						l26.693,0.181L257.358,400.47z"/>
					<path style="fill:#E5785C;" d="M280.419,359.23c0,6.147-5.357,20.316-8.682,24.554c-1.418,1.808-3.376,5.915-7.878,7.28
						c-4.095,1.242-6.519,2.116-6.519,4.328c0,2.401-5.041-2.253-6.762-2.253c-20.46,0-30.573-22.039-30.573-37.053l6.305-19.696
						c0-16.437,10.909-28.252,26.786-28.131c15.877,0.122,28.661,10.947,28.661,27.384L280.419,359.23z"/>
					<path style="fill:#FFB287;" d="M282.171,335.005l-0.208,6.528l-0.123,3.712l-0.444,14.001
						c-0.605,17.241-4.478,33.168-25.412,32.998c-20.897-0.142-26.499-25.44-25.932-41.841l0.992-14.264c0-0.596,0-1.2,0.038-1.767
						c0.425-21.398,9.116-29.239,24.477-29.239c19.187,0,26.017,11.251,26.603,25.752
						C282.218,332.237,282.218,333.607,282.171,335.005z"/>
					<g>
						<path style="fill:#E5785C;" d="M263.551,363.204c2.98,0.004,5.515-1.68,5.383-3.396c-0.048-0.625-0.672-1.379-1.84-0.829
							c-0.536,0.252-1.985,0.548-3.524,0.538c-1.54-0.01-2.374-0.319-3.244-0.58c-1.895-0.569-2.493,0.177-2.541,0.801
							C257.653,361.453,260.57,363.171,263.551,363.204z"/>
					</g>
					<path style="fill:#E5785C;" d="M230.361,348.904c0.434,6.126-2.68,11.388-6.956,11.753c-4.276,0.365-8.095-4.305-8.529-10.431
						c-0.434-6.126,1.95-10.895,6.184-11.651C225.294,337.819,229.927,342.778,230.361,348.904z"/>
					<path style="fill:#422B27;" d="M248.462,347.55c0,1.455,1.189,2.644,2.657,2.656c1.467,0.011,2.656-1.16,2.656-2.615
						c0-1.456-1.189-2.645-2.656-2.656C249.651,344.924,248.462,346.095,248.462,347.55z"/>
					<path style="fill:#422B27;" d="M271.922,347.958c0,1.456,1.189,2.645,2.656,2.656c1.467,0.011,2.656-1.16,2.656-2.615
						c0-1.455-1.189-2.645-2.656-2.656C273.112,345.332,271.922,346.503,271.922,347.958z"/>
					<path style="fill:#8E3925;" d="M227.86,337.068"/>
					<path style="fill:#8E3925;" d="M237.822,335.152"/>
					
						<line style="fill:none;stroke:#8E3925;stroke-width:3.3206;stroke-linecap:round;stroke-miterlimit:10;" x1="243.847" y1="336.733" x2="255.802" y2="336.492"/>
					
						<line style="fill:none;stroke:#8E3925;stroke-width:3.3206;stroke-linecap:round;stroke-miterlimit:10;" x1="270.64" y1="336.938" x2="280.934" y2="337.681"/>
					<path style="fill:#8E3925;" d="M223.923,333.908c0-9.309,4.17-17.624,10.668-23.066c-3.133-3.892-4.27-9.71-3.601-10.245
						c1.106-0.885,15.446-11.543,32.37-1.754c11.589,6.703,16.892,11.203,14.908,15.96c0.025,0.055,0.052,0.107,0.077,0.163
						c-0.032-0.034-0.067-0.07-0.1-0.104c-1.794,4.229-5.776,6.973-9.315,6.973c-14.822,0-14.507-8.703-25.551-7.853
						c-4.314,0.332-10.257,1.426-10.257,12.211c0,11.697-2.524,25.538-2.599,25.543c-3.469,0.225-3.515-2.027-3.515-2.027
						c0-6.194-0.928-9.659-4.867-11.503L223.923,333.908z"/>
				</g>
				<path style="fill:none;stroke:#E5785C;stroke-width:3.6251;stroke-linecap:round;stroke-miterlimit:10;" d="M267.676,373.395
					c-1.727,1.218-4.359,1.414-6.64,1.413c-2.281-0.001-5.965-0.2-7.699-1.42"/>
				<g>
					<path style="fill:#602C34;" d="M267.225,602.551c-0.002-0.045-0.003-0.09-0.005-0.135
						C267.222,602.461,267.223,602.506,267.225,602.551z"/>
					<path style="fill:#602C34;" d="M267.191,601.203c0,0.016,0.001,0.033,0.001,0.05
						C267.192,601.237,267.191,601.22,267.191,601.203z"/>
					<path style="fill:#602C34;" d="M267.211,599.932c-0.001,0.025-0.002,0.05-0.003,0.075
						C267.21,599.982,267.21,599.957,267.211,599.932z"/>
					<path style="fill:#602C34;" d="M267.703,606.736c-0.017-0.091-0.034-0.183-0.049-0.274
						C267.669,606.553,267.686,606.644,267.703,606.736z"/>
					<path style="fill:#602C34;" d="M267.462,605.228c-0.006-0.042-0.01-0.083-0.015-0.125
						C267.452,605.145,267.456,605.186,267.462,605.228z"/>
					<path style="fill:#602C34;" d="M267.322,603.956c-0.006-0.067-0.013-0.134-0.019-0.2
						C267.309,603.823,267.316,603.89,267.322,603.956z"/>
				</g>
				<g>
					
						<path style="fill:none;stroke:#FFB287;stroke-width:17.9125;stroke-linecap:round;stroke-linejoin:round;stroke-miterlimit:10;" d="
						M213.074,449.869l10.085,65.868c0.599,3.913,4.247,6.397,8.108,5.521l44.686-10.139"/>
				</g>
				<polygon style="opacity:0.6;fill:#E5785C;" points="227.152,482.503 227.663,485.441 210.99,495.467 209.522,485.824 				"/>
				<path style="fill:#FFE536;" d="M226.292,406.022c-29.144,0-35.462,17.337-35.191,31.908c0.267,14.343,6.155,51.025,6.155,51.025
					l31.759-6.394l-5.626-44.006L226.292,406.022z"/>
			</g>
			<path style="fill:#177FBF;" d="M225.645,406.022c13.914,0,17.16,32.664,16.975,47.306l-4.798,0.253l-5.491-0.253
				c0.185-14.642-3.27-46.832-18.765-45.958c0,0,3.465-0.651,5.899-0.997C221.898,406.027,225.645,406.022,225.645,406.022z"/>
			<path style="fill:#177FBF;" d="M263.801,406.022c0,0-3.746-0.365-6.18-0.019c-0.085,0.012-0.177,0.026-0.263,0.038v1.12
				c0,0,0.016,0.4-0.126,0.998c10.821,3.983,13.417,33.403,13.256,46.114l5.967-0.461l4.128,0.461
				C280.765,439.631,277.715,406.022,263.801,406.022z"/>
		</g>
		<path style="fill:#FFB287;" d="M263.364,505.37c4.435-2.365,10.029-8.838,12.449-11.172c2.419-2.334,16.25-0.586,16.832,1.421
			c0.582,2.006-3.243,4.996-3.4,5.6c-0.157,0.604-1.5,2.674-2.159,3.265c-0.659,0.591-1.498-0.291-3.024,0.887
			c-1.526,1.178-7.952,2.218-8.633,2.661c-0.681,0.444-5.656,2.07-6.421,2.218C268.243,510.397,263.364,505.37,263.364,505.37z"/>
		<path style="opacity:0.6;fill:#C67560;" d="M281.141,410.666c-1.351-0.831-3.297-1.266-5.574-1.417
			c-4.78-0.331-10.987,0.567-16.117,1.568c-1.908,0.378-3.656,0.765-5.139,1.114c3.155-1.861,3.042-4.77,3.042-4.77v-1.143h7.51
			c0.576,0.009,1.143,0.038,1.701,0.095C272.27,406.17,277.107,407.861,281.141,410.666z"/>
	</g>
	<path style="fill:#9FB9D1;" d="M308.657,479.437c-1.219-3.252-5.534-3.654-8.598-0.847c-6.222,5.702,6.809,14.559,7.831,17.88
		l-13.031,7.154c0,0,9.794-6.643,9.709-6.388c-0.085,0.256,7.665-15.415,7.665-15.415L308.657,479.437z"/>
	<path style="fill:#D64556;" d="M360.254,486.087l-0.93-2.843c-0.059-0.378-0.438-0.628-1.1-0.628h-57.212
		c-1.124,0-2.632,0.707-3.351,1.572l-44.169,53.116c-0.373,0.449-0.458,0.852-0.301,1.139l0.996,2.937l3.042-2.505h54.212
		c1.124,0,2.632-0.707,3.351-1.571l42.67-51.313l-0.175,0.679L360.254,486.087z"/>
	<polygon style="fill:#7A1B38;" points="303.595,482.614 305.287,485.681 309.854,485.681 309.184,482.614 	"/>
	<g>
		<path style="fill:#962643;" d="M315.814,540.37c-0.719,0.864-2.227,1.572-3.351,1.572h-57.212c-1.124,0-1.456-0.707-0.737-1.572
			l44.169-53.116c0.719-0.864,2.227-1.572,3.351-1.572h57.212c1.124,0,1.456,0.707,0.737,1.572L315.814,540.37z"/>
	</g>
	<path style="fill:#9FB9D1;" d="M355.531,483.019c-0.153,0.562-0.409,1.145-0.756,1.738c-1.38,2.34-5.028,5.212-7.328,8.268
		c-15.412,20.522-28.698,40.706-30.231,49.394c0,0-30.405-0.511-46.246,2.555c0,0,1.104-19.244,30.068-53.829
		c2.739-3.271,5.018-4.763,5.958-8.084c0.92-3.25-0.838-6.224-4.599-6.224l47.438,1.877
		C353.504,478.713,356.492,479.595,355.531,483.019z"/>
	<path style="fill:#C2D8EF;" d="M357.192,482.891c-0.153,0.562-0.409,1.145-0.756,1.738c-1.38,2.34-5.028,5.212-7.328,8.268
		c-5.192,6.909-9.556,13.899-13.123,20.461c-2.248,4.118-4.17,8.064-5.784,11.712c-3.475,7.829-5.519,14.319-6.214,18.243
		c0,0-30.405-0.511-46.246,2.555c0,0-4.006-20.266,24.958-54.851c2.739-3.271,5.018-4.763,5.958-8.084
		c0.869-3.076-0.654-5.907-4.016-6.203l46.859,1.86C355.168,478.588,358.152,479.468,357.192,482.891z"/>
	<path style="fill:#9FB9D1;" d="M335.985,513.357c-2.248,4.118-4.17,8.064-5.784,11.712c-0.389-0.204-0.787-0.45-1.186-0.746
		c-3.066-2.3,0.848-8.687,0.848-8.687s-0.685-2.136-0.767-3.924c-0.082-1.789,2.126-0.419,4.262,0.767
		C333.359,512.478,334.473,512.846,335.985,513.357z"/>
	<path style="fill:none;stroke:#FFA68A;stroke-width:5.11;stroke-linecap:round;stroke-linejoin:round;stroke-miterlimit:10;" d="
		M342.894,511.374c-1.874,1.022-6.984,1.107-11.242,0"/>
	<path style="fill:#FFA68A;" d="M340.68,510.948c-2.545-0.221-7.154-0.766-8.517,0.937c-1.363,1.703-6.229,9.237-1.022,10.348
		c5.791,1.235,9.198,0.298,12.264-4.812c1.022-1.704,2.129-3.066,2.086-5.834C345.463,509.745,343.291,511.176,340.68,510.948z"/>
	<path style="fill:#DEF1FF;" d="M357.192,482.891c-3.383,0.246-46.614,0.123-48.535,0.041c0.92-3.25-0.838-6.224-4.599-6.224h48.034
		C355.761,476.708,358.152,479.468,357.192,482.891z"/>
	<path style="fill:#177FBF;" d="M292.663,793.55h-17.2l-6.992-0.358l-13.638-191.626l32.476-25.581
		C289.341,644.276,293.674,793.55,292.663,793.55z"/>
	<polygon style="fill:#16569B;" points="252.725,615.033 262.172,598.028 247.529,603.933 	"/>
	<path style="opacity:0.6;fill:#C67560;" d="M282.204,333.013c0-0.067-0.001-0.133-0.001-0.199
		c-0.055-15.414-6.613-27.682-26.641-27.682c-15.363,0-21.954,10.674-23.148,32.868c0.261-3.147,5.754-4.285,12.99-5.432
		c3.206,3.642,19.76,12.832,36.437,8.896l0.123,0.069l0.12-3.779l0.09-2.747C282.196,334.337,282.204,333.673,282.204,333.013z"/>
	<g style="opacity:0.5;">
		<path style="fill:#27A3E0;" d="M242.805,466.007c0,0,0,4.145,0,9.211c0,5.066,4.251,9.211,9.447,9.211h9.919
			c5.196,0,9.447-4.145,9.447-9.211c0-5.066,0-9.211,0-9.211"/>
	</g>
</g>
<g style="display:inline;">
	<path style="fill:#632C42;" d="M210.449,342.96c-0.701,0-1.402-0.258-1.951-0.779c-1.135-1.078-1.182-2.871-0.104-4.007
		c0.574-0.605,14.497-14.817,52.124-14.817c16.449,0,21.342,1.534,22.909,6.613c1.555,5.042-1.555,9.329-1.417,8.502
		c0.236-1.417,0.472-4.605-0.827-6.259c-0.022-0.027-1.608-3.188-20.665-3.188c-35.219,0-47.889,12.921-48.014,13.051
		C211.948,342.664,211.199,342.96,210.449,342.96z"/>
</g>
<path style="display:inline;fill:#FFDC2B;" d="M283.56,325.01c-1.351-1.03-2.721-1.228-5.517-1.19
	c-1.02,0.009-2.239,0.056-3.713,0.104c-1.974,0.066-4.421,0.132-7.491,0.132c-13.141,0-26.565,1.918-37.363,5.196
	c-10.921,3.297-19.149,8.861-21.983,13.707c-0.85,0.624-1.814-5.451-2.314-11.762c-0.161-2.078-0.274-4.185-0.312-6.093
	c-0.028-0.425-0.028-0.832-0.028-1.238c0-3.023,0.378-6.027,1.124-8.918c2.815-10.656,10.902-19.98,25.129-24.411
	c1.615-0.51,3.307-0.954,5.073-1.323c0.982-0.208,1.993-0.397,3.032-0.557c0.076,0,0.151-0.048,0.198-0.048
	c2.04-0.311,4.166-0.538,6.424-0.699c0.123-0.01,0.246-0.019,0.378-0.028c0.85-0.048,1.663-0.076,2.485-0.076
	c5.054-0.066,9.485,0.69,13.33,2.003c0.274,0.094,0.539,0.179,0.803,0.302c9.882,3.609,15.89,10.978,18.979,17.987
	C285.638,316.754,285.326,324.869,283.56,325.01z"/>
<path style="display:inline;opacity:0.6;fill:#FFFFFF;" d="M278.043,323.82c-0.227,0.737-0.538,1.161-0.935,1.19
	c-0.813-0.624-1.644-0.945-2.777-1.086c-2.371-0.312-6.103,0.132-13.944,0.132l-7.614-0.218c1.889-0.151,2.22-8.795-1.88-18.015
	c-2.674-6.075-7.397-12.385-14.728-16.608c0.982-0.208,1.993-0.397,3.032-0.557c0.076,0,0.151-0.048,0.198-0.048
	c2.04-0.311,4.166-0.538,6.424-0.699c3.59,0.236,6.821,0.907,9.73,1.899c0.274,0.094,0.548,0.179,0.813,0.302
	c9.882,3.609,15.88,10.978,18.979,17.987C278.335,314.836,278.808,321.241,278.043,323.82z"/>
<path style="display:inline;fill:#FFDC2B;" d="M278.014,308.101c-3.092-7.015-9.094-14.38-18.98-17.992
	c-0.26-0.117-0.533-0.208-0.805-0.299c-3.845-1.312-8.275-2.065-13.328-2.001c-0.819,0-1.637,0.027-2.481,0.078
	c-1.774,0.115-3.456,0.292-5.098,0.505c7.059,1.271,13.492,10.456,16.348,16.937c4.097,9.217,3.665,18.36,1.782,18.512l7.61,0.213
	c11.601,0,14.212-0.962,16.719,0.961C281.548,324.872,281.859,316.753,278.014,308.101z"/>
<path style="display:inline;fill:#F7C52C;" d="M206.907,343.983c2.417-5.391,11.645-11.431,22.57-14.731
	c10.795-3.274,24.215-5.196,37.362-5.196c11.601,0,14.212-0.962,16.719,0.961c1.767-0.143,2.079-8.262-1.767-16.914
	c-3.092-7.015-9.094-14.381-18.98-17.992c8.392,5.183,12.036,21.605,12.232,25.925c0.079,1.732-9.563,0.236-38.024,7.203
	C214.346,328.789,202.183,337.213,206.907,343.983z"/>
<path style="display:inline;fill:#FFE536;" d="M302.321,320.684c0,0-14.681,3.325-19.366,4.563c0,0-1.096-0.822-4.487-1.587
	c-2.891-0.642-7.444-1.247-14.407-1.247c-4.043,0-10.174,1.048-15.824,2.239c-7.416,1.549-14.01,3.353-14.01,3.353l-0.557-3.779
	c0,0,4.157-2.862,14.567-5.337c7.019-1.672,16.882-3.174,30.23-3.495c1.748-0.047,3.562-0.066,5.432-0.066
	c12.319,0,17.383,0.822,18.308,2.012C302.624,317.868,302.321,320.684,302.321,320.684z"/>
<path style="display:inline;opacity:0.5;fill:#FFFFFF;" d="M278.468,315.393v8.266c-2.891-0.642-7.444-1.247-14.407-1.247
	c-4.043,0-10.174,1.048-15.824,2.239v-5.763C255.256,317.217,265.119,315.715,278.468,315.393z"/>
<path style="display:inline;fill:#DB9314;" d="M283.9,318.162c-37.315,0-50.069,9.919-50.069,9.919s15.116-2.834,30.231-2.834
	s18.894,2.834,18.894,2.834C291.93,325.719,321.215,318.162,283.9,318.162z"/>
<rect x="242.805" y="462.228" style="display:inline;fill:#16569B;" width="28.813" height="5.744"/>
<g style="display:inline;">
	<path style="fill:#473F3C;" d="M241.624,450.377c1.039,0,1.889-0.85,1.889-1.889v-5.745c0-1.039-0.85-1.889-1.889-1.889h-8.502
		c-1.039,0-1.889,0.85-1.889,1.889v5.745c0,1.039,0.85,1.889,1.889,1.889H241.624z"/>
</g>
<g style="display:inline;">
	<path style="fill:#473F3C;" d="M279.885,450.377c1.039,0,1.889-0.85,1.889-1.889v-5.745c0-1.039-0.85-1.889-1.889-1.889h-8.502
		c-1.039,0-1.889,0.85-1.889,1.889v5.745c0,1.039,0.85,1.889,1.889,1.889H279.885z"/>
</g>
<g style="display:inline;">
	<path style="fill:#177FBF;" d="M241.29,446.852c0.704,0,1.279-0.576,1.279-1.279v-0.861c0-0.703-0.576-1.279-1.279-1.279h-4.999
		c-0.703,0-1.279,0.576-1.279,1.279v0.861c0,0.703,0.576,1.279,1.279,1.279H241.29z"/>
</g>
<g style="display:inline;">
	<path style="fill:#177FBF;" d="M279.432,446.852c0.703,0,1.279-0.576,1.279-1.279v-0.861c0-0.703-0.576-1.279-1.279-1.279h-4.999
		c-0.703,0-1.279,0.576-1.279,1.279v0.861c0,0.703,0.576,1.279,1.279,1.279H279.432z"/>
</g>
<polygon style="display:inline;opacity:0.5;fill:#75D9F1;" points="337.549,156.448 337.549,192.343 324.078,193.911 
	324.078,158.016 "/>
<polygon style="display:inline;opacity:0.5;fill:#75D9F1;" points="540.621,132.897 540.621,168.792 527.15,170.35 527.15,134.455 
	"/>
<polygon style="display:inline;opacity:0.5;fill:#75D9F1;" points="337.549,138.813 337.549,152.034 324.078,153.602 
	324.078,140.382 "/>
<polygon style="display:inline;opacity:0.5;fill:#75D9F1;" points="540.621,115.262 540.621,128.483 527.15,130.042 527.15,116.821 
	"/>
</svg>
